<?xml version="1.0" standalone="no"?>
<!DOCTYPE svg PUBLIC "-//W3C//DTD SVG 20010904//EN"
 "http://www.w3.org/TR/2001/REC-SVG-20010904/DTD/svg10.dtd">
<svg version="1.0" xmlns="http://www.w3.org/2000/svg"
 width="594.000000pt" height="133.000000pt" viewBox="0 0 594.000000 133.000000"
 preserveAspectRatio="xMidYMid meet">
<metadata>
Created by potrace 1.15, written by Peter Selinger 2001-2017
</metadata>
<g transform="translate(0.000000,133.000000) scale(0.100000,-0.100000)"
fill="#000000" stroke="none">
<path d="M515 655 l0 -435 62 0 62 0 -6 217 -6 216 161 -6 162 -6 0 40 0 41
-160 -8 -160 -7 0 158 0 158 175 -7 175 -7 0 41 0 40 -232 0 -233 0 0 -435z"/>
<path d="M1485 655 l0 -435 228 0 227 0 0 39 0 38 -170 -5 -170 -5 0 182 0
181 128 -5 c70 -3 138 -8 152 -10 24 -3 25 -1 25 41 l0 44 -152 -7 -153 -6 0
158 0 158 165 -7 165 -7 0 41 0 40 -222 0 -223 0 0 -435z"/>
<path d="M2432 655 l0 -435 242 0 241 0 1 61 1 60 -46 -5 c-25 -3 -90 -8 -143
-12 l-98 -6 0 157 0 158 140 -8 140 -7 0 56 0 56 -140 0 -140 0 0 114 c0 63 3
122 6 130 7 17 12 17 220 1 l61 -5 -1 60 -1 60 -241 0 -242 0 0 -435z"/>
<path d="M3415 655 l0 -435 200 0 c222 0 293 9 375 48 208 98 301 404 190 628
-75 152 -194 194 -554 194 l-211 0 0 -435z m453 320 c28 -15 64 -44 78 -63 86
-112 96 -309 23 -459 -50 -104 -141 -153 -286 -153 l-73 0 0 349 c0 270 3 351
13 355 6 3 53 4 102 3 77 -2 97 -7 143 -32z"/>
<path d="M4735 656 l0 -436 103 0 102 0 -5 197 -6 198 23 -36 c13 -20 64 -109
113 -197 l90 -161 119 -1 c100 0 117 2 113 15 -4 8 -51 83 -105 167 -54 84
-111 174 -126 199 l-26 46 41 12 c56 17 124 87 139 143 29 106 -8 210 -93 259
-40 23 -50 24 -262 27 l-220 4 0 -436z m334 326 c53 -39 65 -164 24 -234 -23
-39 -76 -68 -125 -68 l-38 0 0 166 0 167 57 -6 c32 -3 68 -14 82 -25z"/>
</g>
</svg>
